/* XPM */
static char *_fa9613a0653445db46929bf86f3c50d[] = {
/* columns rows colors chars-per-pixel */
"81 65 253 2 ",
"   c #070707",
".  c #05050C",
"X  c #0C0C0C",
"o  c #130B09",
"O  c #18130C",
"+  c #040414",
"@  c #02021C",
"#  c #0B0B1F",
"$  c #061616",
"%  c #151515",
"&  c #10101C",
"*  c #1C1C1C",
"=  c #350505",
"-  c #320C14",
";  c #251A11",
":  c #2E2015",
">  c #38271B",
",  c #020224",
"<  c #0A0A23",
"1  c #00002E",
"2  c #0F0F2B",
"3  c #03122F",
"4  c #151522",
"5  c #1B1B25",
"6  c #010134",
"7  c #01013C",
"8  c #0D0D39",
"9  c #191835",
"0  c #290039",
"q  c #370234",
"w  c #053539",
"e  c #252525",
"r  c #2D2D2D",
"t  c #372B28",
"y  c #222235",
"u  c #343434",
"i  c #383333",
"p  c #3C3D3D",
"a  c #4B1312",
"s  c #6B0C0E",
"d  c #7D0019",
"f  c #442D18",
"g  c #493016",
"h  c #653210",
"j  c #780039",
"k  c #5B2727",
"l  c #4D3B20",
"z  c #413737",
"x  c #593434",
"c  c #6B3231",
"v  c #204617",
"b  c #294023",
"n  c #32492C",
"m  c #375B2E",
"M  c #384D39",
"N  c #3D5139",
"B  c #714213",
"V  c #5B4225",
"C  c #584836",
"Z  c #7B532F",
"A  c #68463F",
"S  c #795333",
"D  c #406438",
"F  c #010143",
"G  c #00004B",
"H  c #0D0D49",
"J  c #191242",
"K  c #000054",
"L  c #00005B",
"P  c #0B0B59",
"I  c #120252",
"U  c #19155B",
"Y  c #2D0553",
"T  c #002F4C",
"R  c #25254B",
"E  c #3B3B45",
"W  c #2A2A57",
"Q  c #000064",
"!  c #00006B",
"~  c #050A68",
"^  c #000073",
"/  c #00007C",
"(  c #030E79",
")  c #32066F",
"_  c #003F63",
"`  c #1E3F60",
"'  c #003F7C",
"]  c #400046",
"[  c #523C4B",
"{  c #400063",
"}  c #054545",
"|  c #03434B",
" . c #1A5555",
".. c #34524B",
"X. c #2B5A5C",
"o. c #386B56",
"O. c #154D72",
"+. c #036E6E",
"@. c #266666",
"#. c #3B6D6B",
"$. c #367474",
"%. c #3A7A7A",
"&. c #464646",
"*. c #454648",
"=. c #4A4B4A",
"-. c #495246",
";. c #4C5549",
":. c #4A4A59",
">. c #535453",
",. c #575C56",
"<. c #5C5C5C",
"1. c #6C4343",
"2. c #744E48",
"3. c #6E5255",
"4. c #70655C",
"5. c #4E4E77",
"6. c #5F5F74",
"7. c #4D766F",
"8. c #646464",
"9. c #646D62",
"0. c gray42",
"q. c #7D6060",
"w. c #666678",
"e. c #737374",
"r. c #7D7D7D",
"t. c #8C0006",
"y. c #930303",
"u. c #990404",
"i. c #91081C",
"p. c #A60101",
"a. c #AB0019",
"s. c #B9001A",
"d. c #930028",
"f. c #88073B",
"g. c #871035",
"h. c #BF112C",
"j. c #853D3D",
"k. c #9D5516",
"l. c #875A36",
"z. c #94613A",
"x. c #9B653C",
"c. c #A3693F",
"v. c #BF3550",
"b. c #8F4747",
"n. c #865A5E",
"m. c #8D684F",
"M. c #A86C44",
"N. c #AE7146",
"B. c #B27245",
"V. c #BB784A",
"C. c #B07952",
"Z. c #886464",
"A. c #B2776A",
"S. c #C47D4D",
"D. c #6F886B",
"F. c #808361",
"G. c #C8814D",
"H. c #CC8354",
"J. c #C58358",
"K. c #D68955",
"L. c #E79559",
"P. c #F39B59",
"I. c #FFA45D",
"U. c #DD9463",
"Y. c #D0946F",
"T. c #CC9675",
"R. c #E89C68",
"E. c #F39E60",
"W. c #FFA868",
"Q. c #F2A676",
"!. c #000083",
"~. c #00008D",
"^. c #000094",
"/. c #00009A",
"(. c #2F0092",
"). c #003787",
"_. c #003F97",
"`. c #0101A5",
"'. c #0101AB",
"]. c #0000B4",
"[. c #060DB4",
"{. c #0000BD",
"}. c #2300A8",
"|. c #3800BA",
" X c #003FA3",
".X c #003AB3",
"XX c #232FBD",
"oX c #006F8A",
"OX c #006F9E",
"+X c #006FB2",
"@X c #686883",
"#X c #0000C2",
"$X c #0000CC",
"%X c #0000D2",
"&X c #0000DC",
"*X c #2300C2",
"=X c #0037D9",
"-X c #0000E3",
";X c #0000EC",
":X c #0000F4",
">X c #002FE7",
",X c #003FEA",
"<X c #0746C6",
"1X c #098E94",
"2X c #2A9999",
"3X c #35A49D",
"4X c #008FA9",
"5X c #19A8AF",
"6X c #13BFBF",
"7X c #2FADA3",
"8X c #23B8B8",
"9X c #2ABDBD",
"0X c #448484",
"qX c #51C4AF",
"wX c #008FD3",
"eX c #04BFCB",
"rX c #00BFD7",
"tX c #27BFC9",
"yX c #00BFE4",
"uX c #01C1C1",
"iX c #0BCBCB",
"pX c #1DC9C7",
"aX c #04C7D5",
"sX c #03D2D2",
"dX c #0DDCDA",
"fX c #16D6D7",
"gX c #23CFCF",
"hX c #28D9CF",
"jX c #2DD3D0",
"kX c #1AE1D9",
"lX c #33E0D4",
"zX c #00CFE3",
"xX c #00CFF5",
"cX c #00CFF9",
"vX c #06EFEF",
"bX c #15E4E4",
"nX c #00EFF6",
"mX c #04F3F3",
"MX c #09F6F3",
"NX c cyan",
"BX c #24E4E4",
"VX c #828283",
"CX c #8A8A8A",
"ZX c #939393",
"AX c #9C9C9C",
"SX c #81B1B1",
"DX c #A3A3A3",
"FX c #ABABAB",
"GX c #B2B2B2",
"HX c #BCBCBC",
"JX c #C5C5C5",
"KX c #CCCCCC",
"LX c #D2D2D2",
/* pixels */
"NXNXNXNXNXNXNXNXNXNXNXNXNXNXNXNXNXNXNXNXNXNXNXNXNXNXNXNXNXNXNXNXNXNXNXNXNXNXNXNXNXNXNXNXNXNXNXNXNXNXNXNXNXNXNXNXNXNXNXNXNXNXNXNXNXNXNXNXNXNXNXNXNXNXNXNXNXNXNXNXNX",
"NXNXNXNXNXNXNXNXNXNXNXNXNXNXNXNXNXNXNXNXNXNXNXNXNXNXNXNXNXNXNXNXNXNXNXNXNXNXNXNXNXNXNXNXNXNXNXNXNXNXNXNXNXNXNXNXNXNXNXNXNXNXNXNXNXNXNXNXNXNXNXNXNXNXNXNXNXNXNXNXNX",
"NXNXNXNXNXNXNXNXNXNXNXNXNXNXNXNXNXNXNXNXNXNXNXNXNXNXNXNXNXNXzX). X X X X X X X X X_.OXNXNXNXNXNXNXNXNXNXNXNXNXNXNXNXNXNXNXNXNXNXNXNXNXNXNXNXNXNXNXNXNXNXNXNXNXNXNX",
"NXNXNXNXNXNXNXNXNXNXNXNXNXNXNXNXNXNXNXNXNXNXNXNXNXNXNXNXNXNXaXL ! ^ ! ^ ! ^ ^ ! ^ Q ' NXNXNXNXNXNXNXNXNXNXNXNXNXNXNXNXNXNXNXNXNXNXNXNXNXNXNXNXNXNXNXNXNXNXNXNXNXNX",
"NXNXNXNXNXNXNXNXNXNXNXNXNXNXNXNXNXNXNXNXNXNXNXNXNXNXNXNXNXNX9Xs.h.v.s.a.a.a.i.i.d d [ NXNXNXNXNXNXNXNXNXNXNXNXNXNXNXNXNXNXNXNXNXNXNXNXNXNXNXNXNXNXNXNXNXNXNXNXNXNX",
"NXNXNXNXNXNXNXNXNXNXNXNXNXNXNXNXNXNXNXNXNXNXNXNXNXNXNXNXNXNXeXq { { (.|.|.|.) Y Y 0 ` NXNXNXNXNXNXNXNXNXNXNXNXNXNXNXNXNXNXNXNXNXNXNXNXNXNXNXNXNXNXNXNXNXNXNXNXNXNX",
"NXNXNXNXNXNXNXNXNXNXNXNXNXNXNXNXNXNXNXNXNXNXNXNXNXNXNXNXNXNXyX!.H < 8 F F F 1 , , , ' NXNXNXNXNXNXNXNXNXNXNXNXNXNXNXNXNXNXNXNXNXNXNXNXNXNXNXNXNXNXNXNXNXNXNXNXNXNX",
"NXNXNXNXNXNXNXNXNXNXNXNXNXNXNXNXNXNXNXNXNXNXNXNXNXNXNXNXNXNXrX! / ^.!.L K K G 7 7 7 ' NXNXNXNXNXNXNXNXNXNXNXNXNXNXNXNXNXNXNXNXNXNXNXNXNXNXNXNXNXNXNXNXNXNXNXNXNXNX",
"NXNXNXNXNXNXNXNXNXNXNXNXNXNXNXNXNXNXNXNXNXNXNXNXNXNXNXNXNXNXiX[ n.3.n.A.A.J.A.2.1.A  .NXNXNXNXNXNXNXNXNXNXNXNXNXNXNXNXNXNXNXNXNXNXNXNXNXNXNXNXNXNXNXNXNXNXNXNXNXNX",
"NXNXNXNXNXNXNXNXNXNXNXNXNXNXNXNXNXNXNXNXNXNXNXNXNXNXNXNXNXNXgXl.C.4.> A M.m.=.C Z.z.7.NXNXNXNXNXNXNXNXNXNXNXNXNXNXNXNXNXNXNXNXNXNXNXNXNXNXNXNXNXNXNXNXNXNXNXNXNXNX",
"NXNXNXNXNXNXNXNXNXNXNXNXNXNXNXNXNXNXNXNXNXNXNXNXNXNXNXNXNXNXhXV.E.T.T.J.K.J.T.T.Y.S.F.NXNXNXNXNXNXNXNXNXNXNXNXNXNXNXNXNXNXNXNXNXNXNXNXNXNXNXNXNXNXNXNXNXNXNXNXNXNX",
"NXNXNXNXNXNXNXNXNXNXNXNXNXNXNXNXNXNXNXNXNXNXNXNXNXNXNXNXNXNXhXB.I.W.W.Q.Q.L.W.W.E.S.D.NXNXNXNXNXNXNXNXNXNXNXNXNXNXNXNXNXNXNXNXNXNXNXNXNXNXNXNXNXNXNXNXNXNXNXNXNXNX",
"NXNXNXNXNXNXNXNXNXNXNXNXNXNXNXNXNXNXNXNXNXNXNXNXNXNXNXNXNXNXvXqXK.K.I.K.c.M.L.P.S.F.kXNXNXNXNXNXNXNXNXNXNXNXNXNXNXNXNXNXNXNXNXNXNXNXNXNXNXNXNXNXNXNXNXNXNXNXNXNXNX",
"NXNXNXNXNXNXNXNXNXNXNXNXNXNXNXNXNXNXNXNXNXNXNXNXNXNXNXNXNXNXNXlXH.G.P.H.N.V.L.L.M.D.NXNXNXNXNXNXNXNXNXNXNXNXNXNXNXNXNXNXNXNXNXNXNXNXNXNXNXNXNXNXNXNXNXNXNXNXNXNXNX",
"NXNXNXNXNXNXNXNXNXNXNXNXNXNXNXNXNXNXNXNXNXNXNXNXNXNXNXNXNXNXNXlXH.H.P.B.x.c.G.P.B.D.NXNXNXNXNXNXNXNXNXNXNXNXNXNXNXNXNXNXNXNXNXNXNXNXNXNXNXNXNXNXNXNXNXNXNXNXNXNXNX",
"NXNXNXNXNXNXNXNXNXNXNXNXNXNXNXNXNXNXNXNXNXNXNXNXNXNXNXNXNXNXsX..B.K.R.U.R.U.L.P.B.C +.NXNXNXNXNXNXNXNXNXNXNXNXNXNXNXNXNXNXNXNXNXNXNXNXNXNXNXNXNXNXNXNXNXNXNXNXNXNX",
"NXNXNXNXNXNXNXNXNXNXNXNXNXNXNXNXNXNXNXNXNXNXNXNXNXNXNXNXNXcX.X; x.S.U.K.H.H.L.K.x.f 3 OXNXNXNXNXNXNXNXNXNXNXNXNXNXNXNXNXNXNXNXNXNXNXNXNXNXNXNXNXNXNXNXNXNXNXNXNXNX",
"NXNXNXNXNXNXNXNXNXNXNXNXNXNXNXNXNXNXNXNXNXNXNXNXcX,X<XX. .O.'.o f M.x.z.Z Z l.l.V O < ( _._..X.X.X+XNXNXNXNXNXNXNXNXNXNXNXNXNXNXNXNXNXNXNXNXNXNXNXNXNXNXNXNXNXNXNX",
"NXNXNXNXNXNXNXNXNXNXNXNXNXNXNXNXNXNXNXNXNXNXxX=X=X-X[.u u U ].X o > Z V.z.Z l g O   , ! ! ^ `.{.{.[._.OXNXNXNXNXNXNXNXNXNXNXNXNXNXNXNXNXNXNXNXNXNXNXNXNXNXNXNXNXNX",
"NXNXNXNXNXNXNXNXNXNXNXNXNXNXNXNXNXNXNXNXcX,X>X&X&X%X{.J r R ].!.= u.; > : ; O a y.+ L ! ! ^ `.$X#X/.^ ~ OXNXNXNXNXNXNXNXNXNXNXNXNXNXNXNXNXNXNXNXNXNXNXNXNXNXNXNXNX",
"NXNXNXNXNXNXNXNXNXNXNXNXNXNXNXNXNXNXNXcX>X-X-X;X%X%X%X( r y / #XI s t.  X   = p.- L ! ! ^ /.#X$X$X].^./ ( OXNXNXNXNXNXNXNXNXNXNXNXNXNXNXNXNXNXNXNXNXNXNXNXNXNXNXNX",
"NXNXNXNXNXNXNXNXNXNXNXNXNXNXNXNXNXNXcX>X-X;X:X-X$X%X;X`.* 5 H %X].I = , Q 1 o - L ^ /.].].#X%X{.'.#X-X]./.( OXNXNXNXNXNXNXNXNXNXNXNXNXNXNXNXNXNXNXNXNXNXNXNXNXNXNX",
"NXNXNXNXNXNXNXNXNXNXNXNXNXNXNXNXNXcXXXf.j j { #X~.~.;X$X8 * 9 ^.$X{.'.'.`.K ^ /.{.&X-X&X%X%X$X#X^.^.&X-X#X(.d A 7.NXNXNXNXNXNXNXNXNXNXNXNXNXNXNXNXNXNXNXNXNXNXNXNX",
"NXNXNXNXNXNXNXNXNXNXNXNXNXNXNXNXNXtXd.p.p.p.t.] / !.&X:X`.* 4 J ^.%X&X#X!.! {.$X&X;X].'.'./.^ !.!.!.%X&X*Xd.y.t.s $.NXNXNXNXNXNXNXNXNXNXNXNXNXNXNXNXNXNXNXNXNXNXNX",
"NXNXNXNXNXNXNXNXNXNXNXNXNXNXNXNXgXj.c c x k k s q L !.-X%X8 * 4 8 ^ /.^.L ^ %X$X#X^.Q Q Q L L ^ !./ '.}.g.1.n.3.x t $.NXNXNXNXNXNXNXNXNXNXNXNXNXNXNXNXNXNXNXNXNXNX",
"NXNXNXNXNXNXNXNXNXNXNXNXNXNXNXgXb.Z.8.E p p &.n.[ K K /.$X^.8 < * 8 Q / K ^ $X$X$X{.^./.! / K Q K Q Y f.3.9.n N >.i t $.NXNXNXNXNXNXNXNXNXNXNXNXNXNXNXNXNXNXNXNXNX",
"NXNXNXNXNXNXNXNXNXNXNXNXNXNXNXfXq.D N =.p =.9.D N W G Q ^.~.! 7 # * 2 F G ! `.`.].%X`.]./ !.G G 6 K U 1.<.9.v m >.&.z X.NXNXNXNXNXNXNXNXNXNXNXNXNXNXNXNXNXNXNXNXNX",
"NXNXNXNXNXNXNXNXNXNXNXNXNXNXdX7.9.v b >.u =.9.v b :.Q ^ ^ / ^ L 7 # * 4 2 7 L Q / / ! Q K K F 7 < y *.>.=.>.;.-.i z =...2XNXNXNXNXNXNXNXNXNXNXNXNXNXNXNXNXNXNXNXNX",
"NXNXNXNXNXNXNXNXNXNXNXNXNXNXfX&.-.;.&.r % * -.;.&.X.wX/./ ^ ! ! L F 2 ; * 4 2 6 G L Q K G 6 1 1 , e e.0.=.&.* e p >.e.<. .NXNXNXNXNXNXNXNXNXNXNXNXNXNXNXNXNXNXNXNX",
"NXNXNXNXNXNXNXNXNXNXNXNXNXNXfX&.p p r X   X * &.u @.nXwX^.L K G F 7 6 6 1 # # 4 4 2 7 F 7 , , T 5X,.n M &.O   X p 8.n N %.NXNXNXNXNXNXNXNXNXNXNXNXNXNXNXNXNXNXNXNX",
"NXNXNXNXNXNXNXNXNXNXNXNXNXNXfX=.=.e.>.e   % p 0.,.@.NXaXR y y 5 y 4 > c.h h g   X X + + + . . | kX9.v m >.e * e >.9.v m 0XNXNXNXNXNXNXNXNXNXNXNXNXNXNXNXNXNXNXNXNX",
"NXNXNXNXNXNXNXNXNXNXNXNXNXNXiX>.9.D N =.r p 9.D M %.NXiXr r e e e * : k.B h f                 } MX9X;.;.p &.0.<.=.>.;.-.@.NXNXNXNXNXNXNXNXNXNXNXNXNXNXNXNXNXNXNXNX",
"NXNXNXNXNXNXNXNXNXNXNXNXNXNXMX9X9.v b >.u =.9.v b 0XNXiXy H P P P ~ ~ Y J 9 o X               } NXmX8Xp &.<.n N >.&.&.X.sXNXNXNXNXNXNXNXNXNXNXNXNXNXNXNXNXNXNXNXNX",
"NXNXNXNXNXNXNXNXNXNXNXNXNXNXNXpXc -.&.i u z =.>.#.dXNXrXP ! ! ! ^ ~.~.`.^.K , @ , , , , , 1 1 3 oXNXpXs >.9.v m >.i t ..NXNXNXNXNXNXNXNXNXNXNXNXNXNXNXNXNXNXNXNXNX",
"NXNXNXNXNXNXNXNXNXNXNXNXNXNXNX9Xy.a i r p p i a :.NXzX).! ! L L L Q Q / / Q , , 6 6 6 1 1 6 1 1 _ NXpXu.k -.-.-.u t a p NXNXNXNXNXNXNXNXNXNXNXNXNXNXNXNXNXNXNXNXNX",
"NXNXNXNXNXNXNXNXNXNXNXNXNXNXNXvXpX7Xm.V V V D 6XiXNXaXQ L U 6.6.6.6.w.@X5.F , 1 1 6 7 1 1 1 1 1 _ NXvX9X3XS C V g ..6XiXNXNXNXNXNXNXNXNXNXNXNXNXNXNXNXNXNXNXNXNXNX",
"NXNXNXNXNXNXNXNXNXNXNXNXNXNXNXNXNXjXx.B V V o.NXNXNXrXU 6.w.r.VX@XVXCXCXVX5.F 1 1 1 6 6 1 1 1 1 _ NXNXNXjXz.V V l o.NXNXNXNXNXNXNXNXNXNXNXNXNXNXNXNXNXNXNXNXNXNXNX",
"NXNXNXNXNXNXNXNXNXNXNXNXNXNXNXNXNXMX7Xt r ..fXNXNXNXfXw.VXVXr.r.CXCXCXCXCXVX:.1 , 1 , , , & + + | NXNXNXMX7Xt t ..fXNXNXNXNXNXNXNXNXNXNXNXNXNXNXNXNXNXNXNXNXNXNXNX",
"NXNXNXNXNXNXNXNXNXNXNXNXNXNXNXNXNXNXnXiXiXsXNXNXNXNXBXr.Z.CXVXVXCXCXCXCXCXCXe.*.*.*.*.E E p u u @.NXNXNXNXvXiXiXsXNXNXNXNXNXNXNXNXNXNXNXNXNXNXNXNXNXNXNXNXNXNXNXNX",
"NXNXNXNXNXNXNXNXNXNXNXNXNXNXNXNXNXNXNXNXNXNXNXNXNXNXBXCXCXCXFXFXFXFXFXFXAXCXe.<.0.8.>.=.=.&.=.&.%.NXNXNXNXNXNXNXNXNXNXNXNXNXNXNXNXNXNXNXNXNXNXNXNXNXNXNXNXNXNXNXNX",
"NXNXNXNXNXNXNXNXNXNXNXNXNXNXNXNXNXNXNXNXNXNXNXNXNXNXBXZXGXJXKXLXKXKXKXLXHXAXe.<.0.0.>.=.=.&.&.=.%.NXNXNXNXNXNXNXNXNXNXNXNXNXNXNXNXNXNXNXNXNXNXNXNXNXNXNXNXNXNXNXNX",
"NXNXNXNXNXNXNXNXNXNXNXNXNXNXNXNXNXNXNXNXNXNXNXNXNXNXBXHXKXJXHXGXJXHXHXGXHXHXDXr.8.<.,.=.&.=.=.#.dXNXNXNXNXNXNXNXNXNXNXNXNXNXNXNXNXNXNXNXNXNXNXNXNXNXNXNXNXNXNXNXNX",
"NXNXNXNXNXNXNXNXNXNXNXNXNXNXNXNXNXNXNXNXNXNXNXNXNXbXSXKXHXGXZXDXFXFXFXDXAXHXFXVX8.<.,.=.&.&.&.%.NXNXNXNXNXNXNXNXNXNXNXNXNXNXNXNXNXNXNXNXNXNXNXNXNXNXNXNXNXNXNXNXNX",
"NXNXNXNXNXNXNXNXNXNXNXNXNXNXNXNXNXNXNXNXNXNXNXNXNXBXZXHXCXCXZXFXFXFXFXDXVXZXZXVX0.8.8.>.>.=.=.:.2XNXNXNXNXNXNXNXNXNXNXNXNXNXNXNXNXNXNXNXNXNXNXNXNXNXNXNXNXNXNXNXNX",
"NXNXNXNXNXNXNXNXNXNXNXNXNXNXNXNXNXNXNXNXNXNXNXNXNXMXjXZ.e.r.CXAXFXFXFXZXZXe.u >.>.>.>.=.=.=.&.=.%.NXNXNXNXNXNXNXNXNXNXNXNXNXNXNXNXNXNXNXNXNXNXNXNXNXNXNXNXNXNXNXNX",
"NXNXNXNXNXNXNXNXNXNXNXNXNXNXNXNXNXNXNXNXNXNXNXNXNXNXvX9X8.r.r.r.VXVXVXF.e.E X e *.*.&.*.*.&.*.#.dXNXNXNXNXNXNXNXNXNXNXNXNXNXNXNXNXNXNXNXNXNXNXNXNXNXNXNXNXNXNXNXNX",
"NXNXNXNXNXNXNXNXNXNXNXNXNXNXNXNXNXNXNXNXNXNXNXNXNXNXNXaXR 8.8.<.8.8.8.<.=.e X X % % * % % % } kXNXNXNXNXNXNXNXNXNXNXNXNXNXNXNXNXNXNXNXNXNXNXNXNXNXNXNXNXNXNXNXNXNX",
"NXNXNXNXNXNXNXNXNXNXNXNXNXNXNXNXNXNXNXNXNXNXNXNXNXNXNXaX7 9 * * * * * * % X . @ +         w iXNXNXNXNXNXNXNXNXNXNXNXNXNXNXNXNXNXNXNXNXNXNXNXNXNXNXNXNXNXNXNXNXNXNX",
"NXNXNXNXNXNXNXNXNXNXNXNXNXNXNXNXNXNXNXNXNXNXNXNXNXNXNXnX4X6 6 6 6 1 +         . .         } NXNXNXNXNXNXNXNXNXNXNXNXNXNXNXNXNXNXNXNXNXNXNXNXNXNXNXNXNXNXNXNXNXNXNX",
"NXNXNXNXNXNXNXNXNXNXNXNXNXNXNXNXNXNXNXNXNXNXNXNXNXNXNXNXaXF F F 7 1 @     . @ @ @ @ +     $ +.NXNXNXNXNXNXNXNXNXNXNXNXNXNXNXNXNXNXNXNXNXNXNXNXNXNXNXNXNXNXNXNXNXNX",
"NXNXNXNXNXNXNXNXNXNXNXNXNXNXNXNXNXNXNXNXNXNXNXNXNXNXNXNXuX+ + + . + .     + @ 1 @ . .       } NXNXNXNXNXNXNXNXNXNXNXNXNXNXNXNXNXNXNXNXNXNXNXNXNXNXNXNXNXNXNXNXNXNX",
"NXNXNXNXNXNXNXNXNXNXNXNXNXNXNXNXNXNXNXNXNXNXNXNXNXNXNXNXvX1X. @ @ @ +     w 4X@ .           } NXNXNXNXNXNXNXNXNXNXNXNXNXNXNXNXNXNXNXNXNXNXNXNXNXNXNXNXNXNXNXNXNXNX",
"NXNXNXNXNXNXNXNXNXNXNXNXNXNXNXNXNXNXNXNXNXNXNXNXNXNXNXNXsXw 6 7 7 7 1 @ + $ +.eXuXuXuXuXuXuXsXNXNXNXNXNXNXNXNXNXNXNXNXNXNXNXNXNXNXNXNXNXNXNXNXNXNXNXNXNXNXNXNXNXNX",
"NXNXNXNXNXNXNXNXNXNXNXNXNXNXNXNXNXNXNXNXNXNXNXNXNXNXNXNXuX+ 7 G F F 6 @     w NXNXNXNXNXNXNXNXNXNXNXNXNXNXNXNXNXNXNXNXNXNXNXNXNXNXNXNXNXNXNXNXNXNXNXNXNXNXNXNXNXNX",
"NXNXNXNXNXNXNXNXNXNXNXNXNXNXNXNXNXNXNXNXNXNXNXNXNXNXNXNXuX  + + + + +       } NXNXNXNXNXNXNXNXNXNXNXNXNXNXNXNXNXNXNXNXNXNXNXNXNXNXNXNXNXNXNXNXNXNXNXNXNXNXNXNXNXNX",
"NXNXNXNXNXNXNXNXNXNXNXNXNXNXNXNXNXNXNXNXNXNXNXNXNXNXNXNXvXuXuXuXuXuXuXeXuXeXsXNXNXNXNXNXNXNXNXNXNXNXNXNXNXNXNXNXNXNXNXNXNXNXNXNXNXNXNXNXNXNXNXNXNXNXNXNXNXNXNXNXNX",
"NXNXNXNXNXNXNXNXNXNXNXNXNXNXNXNXNXNXNXNXNXNXNXNXNXNXNXNXNXNXNXNXNXNXNXNXNXNXNXNXNXNXNXNXNXNXNXNXNXNXNXNXNXNXNXNXNXNXNXNXNXNXNXNXNXNXNXNXNXNXNXNXNXNXNXNXNXNXNXNXNX",
"NXNXNXNXNXNXNXNXNXNXNXNXNXNXNXNXNXNXNXNXNXNXNXNXNXNXNXNXNXNXNXNXNXNXNXNXNXNXNXNXNXNXNXNXNXNXNXNXNXNXNXNXNXNXNXNXNXNXNXNXNXNXNXNXNXNXNXNXNXNXNXNXNXNXNXNXNXNXNXNXNX",
"NXNXNXNXNXNXNXNXNXNXNXNXNXNXNXNXNXNXNXNXNXNXNXNXNXNXNXNXNXNXNXNXNXNXNXNXNXNXNXNXNXNXNXNXNXNXNXNXNXNXNXNXNXNXNXNXNXNXNXNXNXNXNXNXNXNXNXNXNXNXNXNXNXNXNXNXNXNXNXNXNX",
"NXNXNXNXNXNXNXNXNXNXNXNXNXNXNXNXNXNXNXNXNXNXNXNXNXNXNXNXNXNXNXNXNXNXNXNXNXNXNXNXNXNXNXNXNXNXNXNXNXNXNXNXNXNXNXNXNXNXNXNXNXNXNXNXNXNXNXNXNXNXNXNXNXNXNXNXNXNXNXNXNX",
"NXNXNXNXNXNXNXNXNXNXNXNXNXNXNXNXNXNXNXNXNXNXNXNXNXNXNXNXNXNXNXNXNXNXNXNXNXNXNXNXNXNXNXNXNXNXNXNXNXNXNXNXNXNXNXNXNXNXNXNXNXNXNXNXNXNXNXNXNXNXNXNXNXNXNXNXNXNXNXNXNX",
"NXNXNXNXNXNXNXNXNXNXNXNXNXNXNXNXNXNXNXNXNXNXNXNXNXNXNXNXNXNXNXNXNXNXNXNXNXNXNXNXNXNXNXNXNXNXNXNXNXNXNXNXNXNXNXNXNXNXNXNXNXNXNXNXNXNXNXNXNXNXNXNXNXNXNXNXNXNXNXNXNX",
"NXNXNXNXNXNXNXNXNXNXNXNXNXNXNXNXNXNXNXNXNXNXNXNXNXNXNXNXNXNXNXNXNXNXNXNXNXNXNXNXNXNXNXNXNXNXNXNXNXNXNXNXNXNXNXNXNXNXNXNXNXNXNXNXNXNXNXNXNXNXNXNXNXNXNXNXNXNXNXNXNX",
"NXNXNXNXNXNXNXNXNXNXNXNXNXNXNXNXNXNXNXNXNXNXNXNXNXNXNXNXNXNXNXNXNXNXNXNXNXNXNXNXNXNXNXNXNXNXNXNXNXNXNXNXNXNXNXNXNXNXNXNXNXNXNXNXNXNXNXNXNXNXNXNXNXNXNXNXNXNXNXNXNX",
"NXNXNXNXNXNXNXNXNXNXNXNXNXNXNXNXNXNXNXNXNXNXNXNXNXNXNXNXNXNXNXNXNXNXNXNXNXNXNXNXNXNXNXNXNXNXNXNXNXNXNXNXNXNXNXNXNXNXNXNXNXNXNXNXNXNXNXNXNXNXNXNXNXNXNXNXNXNXNXNXNX"
};
